<?xml version='1.0' encoding='ascii'?>
<svg xmlns="http://www.w3.org/2000/svg" height="540" version="1.1" width="960">
    <g id="RenderLayer_LineSet" inkscape:groupmode="lineset" inkscape:label="RenderLayer_LineSet" xmlns:inkscape="http://www.inkscape.org/namespaces/inkscape">
        <g id="strokes" inkscape:groupmode="layer" inkscape:label="strokes" xmlns:inkscape="http://www.inkscape.org/namespaces/inkscape">
            <path d=" M 802.283, 311.185 804.387, 304.834 805.212, 298.193 804.726, 291.520 802.947, 285.070 799.944, 279.090 795.832, 273.811 790.769, 269.436 784.950, 266.133 778.598, 264.029 771.958, 263.204 765.284, 263.690 758.834, 265.469 752.854, 268.472 747.576, 272.584 743.201, 277.647 739.898, 283.466 737.793, 289.818 736.968, 296.458 737.455, 303.132 739.234, 309.582 742.237, 315.561 746.349, 320.840 751.412, 325.215 757.231, 328.518 763.582, 330.623 770.222, 331.448 776.896, 330.961 783.346, 329.182 789.326, 326.179 794.604, 322.067 798.979, 317.004 802.283, 311.185 " fill="none" stroke="rgb(0, 0, 0)" stroke-linecap="butt" stroke-linejoin="round" stroke-opacity="1.0" stroke-width="3.0" />
            <path d=" M 726.528, 331.480 728.633, 325.128 729.458, 318.488 728.971, 311.814 727.193, 305.364 724.189, 299.385 720.077, 294.106 715.015, 289.731 709.195, 286.428 702.844, 284.323 696.204, 283.498 689.530, 283.985 683.080, 285.764 677.100, 288.767 671.822, 292.879 667.447, 297.942 664.143, 303.761 662.039, 310.112 661.214, 316.752 661.700, 323.426 663.479, 329.876 666.482, 335.856 670.594, 341.134 675.657, 345.509 681.476, 348.813 687.828, 350.917 694.468, 351.742 701.142, 351.256 707.592, 349.477 713.572, 346.474 718.850, 342.362 723.225, 337.299 726.528, 331.480 " fill="none" stroke="rgb(0, 0, 0)" stroke-linecap="butt" stroke-linejoin="round" stroke-opacity="1.0" stroke-width="3.0" />
            <path d=" M 648.318, 359.375 650.422, 353.024 651.247, 346.383 650.761, 339.710 648.982, 333.260 645.979, 327.280 641.867, 322.001 636.804, 317.626 630.985, 314.323 624.633, 312.219 617.993, 311.394 611.320, 311.880 604.869, 313.659 598.890, 316.662 593.611, 320.774 589.236, 325.837 585.933, 331.656 583.828, 338.008 583.004, 344.648 583.490, 351.322 585.269, 357.772 588.272, 363.751 592.384, 369.030 597.447, 373.405 603.266, 376.708 609.618, 378.813 616.258, 379.638 622.931, 379.151 629.382, 377.372 635.361, 374.369 640.640, 370.257 645.015, 365.194 648.318, 359.375 " fill="none" stroke="rgb(0, 0, 0)" stroke-linecap="butt" stroke-linejoin="round" stroke-opacity="1.0" stroke-width="3.0" />
            <path d=" M 576.335, 343.200 578.439, 336.849 579.264, 330.208 578.778, 323.535 576.999, 317.085 573.996, 311.105 569.884, 305.826 564.821, 301.451 559.002, 298.148 552.650, 296.044 546.010, 295.219 539.337, 295.705 532.886, 297.484 526.907, 300.487 521.628, 304.599 517.253, 309.662 513.950, 315.481 511.845, 321.833 511.020, 328.473 511.507, 335.147 513.286, 341.597 516.289, 347.576 520.401, 352.855 525.464, 357.230 531.283, 360.533 537.634, 362.638 544.275, 363.463 550.948, 362.976 557.399, 361.197 563.378, 358.194 568.657, 354.082 573.032, 349.019 576.335, 343.200 " fill="none" stroke="rgb(0, 0, 0)" stroke-linecap="butt" stroke-linejoin="round" stroke-opacity="1.0" stroke-width="3.0" />
            <path d=" M 805.893, 237.226 807.997, 230.875 808.822, 224.234 808.336, 217.561 806.557, 211.111 803.554, 205.131 799.442, 199.852 794.379, 195.477 788.560, 192.174 782.208, 190.070 775.568, 189.245 768.895, 189.731 762.444, 191.510 756.465, 194.513 751.186, 198.625 746.811, 203.688 743.508, 209.507 741.403, 215.859 740.578, 222.499 741.065, 229.172 742.844, 235.623 745.847, 241.602 749.959, 246.881 755.022, 251.256 760.841, 254.559 767.192, 256.664 773.833, 257.489 780.506, 257.002 786.956, 255.223 792.936, 252.220 798.215, 248.108 802.590, 243.045 805.893, 237.226 " fill="none" stroke="rgb(0, 0, 0)" stroke-linecap="butt" stroke-linejoin="round" stroke-opacity="1.0" stroke-width="3.0" />
            <path d=" M 729.789, 226.750 731.894, 220.398 732.719, 213.758 732.232, 207.085 730.453, 200.634 727.450, 194.655 723.338, 189.376 718.275, 185.001 712.456, 181.698 706.105, 179.594 699.464, 178.769 692.791, 179.255 686.341, 181.034 680.361, 184.037 675.083, 188.149 670.708, 193.212 667.404, 199.031 665.300, 205.383 664.475, 212.023 664.961, 218.696 666.740, 225.147 669.743, 231.126 673.855, 236.405 678.918, 240.780 684.737, 244.083 691.089, 246.188 697.729, 247.012 704.403, 246.526 710.853, 244.747 716.832, 241.744 722.111, 237.632 726.486, 232.569 729.789, 226.750 " fill="none" stroke="rgb(0, 0, 0)" stroke-linecap="butt" stroke-linejoin="round" stroke-opacity="1.0" stroke-width="3.0" />
            <path d=" M 653.105, 212.710 655.209, 206.358 656.034, 199.718 655.548, 193.044 653.769, 186.594 650.766, 180.614 646.654, 175.336 641.591, 170.961 635.772, 167.658 629.420, 165.553 622.780, 164.728 616.106, 165.214 609.656, 166.993 603.676, 169.997 598.398, 174.109 594.023, 179.171 590.720, 184.990 588.615, 191.342 587.790, 197.982 588.276, 204.656 590.055, 211.106 593.059, 217.086 597.171, 222.364 602.233, 226.739 608.053, 230.043 614.404, 232.147 621.044, 232.972 627.718, 232.486 634.168, 230.707 640.148, 227.703 645.426, 223.591 649.801, 218.529 653.105, 212.710 " fill="none" stroke="rgb(0, 0, 0)" stroke-linecap="butt" stroke-linejoin="round" stroke-opacity="1.0" stroke-width="3.0" />
            <path d=" M 566.647, 242.325 568.752, 235.974 569.577, 229.333 569.091, 222.660 567.312, 216.209 564.308, 210.230 560.196, 204.951 555.134, 200.576 549.315, 197.273 542.963, 195.169 536.323, 194.344 529.649, 194.830 523.199, 196.609 517.219, 199.612 511.941, 203.724 507.566, 208.787 504.262, 214.606 502.158, 220.958 501.333, 227.598 501.819, 234.271 503.598, 240.722 506.602, 246.701 510.714, 251.980 515.776, 256.355 521.595, 259.658 527.947, 261.763 534.587, 262.588 541.261, 262.101 547.711, 260.322 553.691, 257.319 558.969, 253.207 563.344, 248.144 566.647, 242.325 " fill="none" stroke="rgb(0, 0, 0)" stroke-linecap="butt" stroke-linejoin="round" stroke-opacity="1.0" stroke-width="3.0" />
            <path d=" M 649.768, 285.162 651.872, 278.810 652.697, 272.170 652.211, 265.497 650.432, 259.046 647.429, 253.067 643.317, 247.788 638.254, 243.413 632.435, 240.110 626.083, 238.006 619.443, 237.181 612.770, 237.667 606.319, 239.446 600.340, 242.449 595.061, 246.561 590.686, 251.624 587.383, 257.443 585.278, 263.795 584.453, 270.435 584.940, 277.108 586.719, 283.559 589.722, 289.538 593.834, 294.817 598.897, 299.192 604.716, 302.495 611.068, 304.600 617.708, 305.424 624.381, 304.938 630.832, 303.159 636.811, 300.156 642.090, 296.044 646.465, 290.981 649.768, 285.162 " fill="none" stroke="rgb(0, 0, 0)" stroke-linecap="butt" stroke-linejoin="round" stroke-opacity="1.0" stroke-width="3.0" />
            <path d=" M 490.039, 339.388 492.143, 333.037 492.968, 326.397 492.482, 319.723 490.703, 313.273 487.700, 307.293 483.588, 302.015 478.525, 297.640 472.706, 294.336 466.354, 292.232 459.714, 291.407 453.040, 291.893 446.590, 293.672 440.611, 296.675 435.332, 300.787 430.957, 305.850 427.654, 311.669 425.549, 318.021 424.724, 324.661 425.211, 331.335 426.990, 337.785 429.993, 343.765 434.105, 349.043 439.168, 353.418 444.987, 356.721 451.338, 358.826 457.978, 359.651 464.652, 359.164 471.102, 357.386 477.082, 354.382 482.361, 350.270 486.735, 345.208 490.039, 339.388 " fill="none" stroke="rgb(0, 0, 0)" stroke-linecap="butt" stroke-linejoin="round" stroke-opacity="1.0" stroke-width="3.0" />
            <path d=" M 446.012, 269.787 448.116, 263.436 448.941, 256.796 448.455, 250.122 446.676, 243.672 443.673, 237.692 439.561, 232.414 434.498, 228.039 428.679, 224.735 422.327, 222.631 415.687, 221.806 409.013, 222.292 402.563, 224.071 396.583, 227.074 391.305, 231.186 386.930, 236.249 383.627, 242.068 381.522, 248.420 380.697, 255.060 381.184, 261.734 382.963, 268.184 385.966, 274.164 390.078, 279.442 395.141, 283.817 400.960, 287.120 407.311, 289.225 413.951, 290.050 420.625, 289.563 427.075, 287.784 433.055, 284.781 438.333, 280.669 442.708, 275.606 446.012, 269.787 " fill="none" stroke="rgb(0, 0, 0)" stroke-linecap="butt" stroke-linejoin="round" stroke-opacity="1.0" stroke-width="3.0" />
            <path d=" M 395.432, 329.611 397.537, 323.259 398.362, 316.619 397.875, 309.945 396.096, 303.495 393.093, 297.516 388.981, 292.237 383.918, 287.862 378.099, 284.559 371.748, 282.454 365.107, 281.629 358.434, 282.116 351.983, 283.895 346.004, 286.898 340.725, 291.010 336.350, 296.073 333.047, 301.892 330.943, 308.243 330.118, 314.883 330.604, 321.557 332.383, 328.007 335.386, 333.987 339.498, 339.266 344.561, 343.640 350.380, 346.944 356.732, 349.048 363.372, 349.873 370.045, 349.387 376.496, 347.608 382.475, 344.605 387.754, 340.493 392.129, 335.430 395.432, 329.611 " fill="none" stroke="rgb(0, 0, 0)" stroke-linecap="butt" stroke-linejoin="round" stroke-opacity="1.0" stroke-width="3.0" />
            <path d=" M 226.168, 318.771 228.272, 312.419 229.097, 305.779 228.611, 299.106 226.832, 292.655 223.829, 286.676 219.716, 281.397 214.654, 277.022 208.835, 273.719 202.483, 271.614 195.843, 270.789 189.169, 271.276 182.719, 273.055 176.739, 276.058 171.461, 280.170 167.086, 285.233 163.783, 291.052 161.678, 297.404 160.853, 304.044 161.339, 310.717 163.118, 317.168 166.122, 323.147 170.234, 328.426 175.296, 332.801 181.116, 336.104 187.467, 338.208 194.107, 339.033 200.781, 338.547 207.231, 336.768 213.211, 333.765 218.489, 329.653 222.864, 324.590 226.168, 318.771 " fill="none" stroke="rgb(0, 0, 0)" stroke-linecap="butt" stroke-linejoin="round" stroke-opacity="1.0" stroke-width="3.0" />
            <path d=" M 325.494, 250.570 327.598, 244.218 328.423, 237.578 327.937, 230.904 326.158, 224.454 323.155, 218.474 319.043, 213.196 313.980, 208.821 308.161, 205.518 301.809, 203.413 295.169, 202.588 288.495, 203.074 282.045, 204.853 276.065, 207.857 270.787, 211.969 266.412, 217.031 263.109, 222.850 261.004, 229.202 260.179, 235.842 260.665, 242.516 262.444, 248.966 265.448, 254.946 269.560, 260.224 274.622, 264.599 280.441, 267.903 286.793, 270.007 293.433, 270.832 300.107, 270.346 306.557, 268.567 312.537, 265.564 317.815, 261.451 322.190, 256.389 325.494, 250.570 " fill="none" stroke="rgb(0, 0, 0)" stroke-linecap="butt" stroke-linejoin="round" stroke-opacity="1.0" stroke-width="3.0" />
            <path d=" M 308.568, 325.850 310.673, 319.499 311.498, 312.858 311.011, 306.185 309.232, 299.735 306.229, 293.755 302.117, 288.476 297.054, 284.101 291.235, 280.798 284.884, 278.694 278.244, 277.869 271.570, 278.355 265.120, 280.134 259.140, 283.137 253.862, 287.249 249.487, 292.312 246.183, 298.131 244.079, 304.483 243.254, 311.123 243.740, 317.797 245.519, 324.247 248.522, 330.226 252.634, 335.505 257.697, 339.880 263.516, 343.183 269.868, 345.288 276.508, 346.113 283.182, 345.626 289.632, 343.847 295.611, 340.844 300.890, 336.732 305.265, 331.669 308.568, 325.850 " fill="none" stroke="rgb(0, 0, 0)" stroke-linecap="butt" stroke-linejoin="round" stroke-opacity="1.0" stroke-width="3.0" />
            <path d=" M 241.109, 241.287 243.213, 234.935 244.038, 228.295 243.552, 221.622 241.773, 215.171 238.770, 209.192 234.658, 203.913 229.595, 199.538 223.776, 196.235 217.424, 194.130 210.784, 193.305 204.110, 193.792 197.660, 195.571 191.681, 198.574 186.402, 202.686 182.027, 207.749 178.724, 213.568 176.619, 219.919 175.794, 226.560 176.281, 233.233 178.060, 239.684 181.063, 245.663 185.175, 250.942 190.238, 255.317 196.057, 258.620 202.408, 260.724 209.049, 261.549 215.722, 261.063 222.173, 259.284 228.152, 256.281 233.431, 252.169 237.806, 247.106 241.109, 241.287 " fill="none" stroke="rgb(0, 0, 0)" stroke-linecap="butt" stroke-linejoin="round" stroke-opacity="1.0" stroke-width="3.0" />
            <path d=" M 443.673, 207.355 443.697, 207.352 443.694, 207.352 442.477, 207.486 442.500, 207.483 441.068, 207.642 439.659, 207.799 439.635, 207.802 438.278, 207.955 437.096, 208.090 437.072, 208.092 436.116, 208.203 435.662, 208.254 435.239, 208.298 434.760, 208.343 434.324, 208.380 433.867, 208.416 433.418, 208.448 432.959, 208.476 432.544, 208.498 432.155, 208.515 431.798, 208.526 431.503, 208.531 431.203, 208.529 430.497, 208.518 430.521, 208.518 429.529, 208.504 428.275, 208.488 428.299, 208.488 426.900, 208.472 425.381, 208.456 425.405, 208.455 423.884, 208.440 422.406, 208.415 420.687, 208.370 418.785, 208.306 416.755, 208.227 414.655, 208.135 412.540, 208.034 410.468, 207.925 408.494, 207.813 406.675, 207.699 405.067, 207.587 403.727, 207.480 402.705, 207.379 402.687, 207.377 402.711, 207.380 402.705, 207.379 402.074, 207.311 402.098, 207.313 401.222, 207.223 400.120, 207.114 400.144, 207.115 398.926, 206.997 397.607, 206.874 397.623, 206.873 397.631, 206.873 396.321, 206.750 394.696, 206.593 393.121, 206.430 391.611, 206.262 390.178, 206.091 388.838, 205.919 387.629, 205.752 386.492, 205.581 385.514, 205.420 384.685, 205.265 384.019, 205.120 383.530, 204.987 382.963, 204.761 382.539, 204.655 382.279, 204.603 381.993, 204.554 381.684, 204.507 381.357, 204.463 381.016, 204.423 380.664, 204.388 380.305, 204.358 379.134, 204.281 378.355, 204.222 377.607, 204.155 376.888, 204.080 376.197, 203.998 375.533, 203.907 374.893, 203.807 374.277, 203.700 373.684, 203.583 373.110, 203.457 372.556, 203.322 371.997, 203.172 372.020, 203.178 371.550, 203.053 371.067, 202.940 370.594, 202.841 370.157, 202.764 369.779, 202.711 369.511, 202.690 369.225, 202.661 368.935, 202.596 368.632, 202.499 368.333, 202.376 368.055, 202.233 367.813, 202.076 367.485, 201.877 367.068, 201.707 366.820, 201.632 366.543, 201.563 366.234, 201.498 365.891, 201.439 365.511, 201.383 365.092, 201.331 364.631, 201.282 364.126, 201.235 363.387, 201.160 362.675, 201.067 361.993, 200.957 361.365, 200.835 360.724, 200.687 360.142, 200.528 359.597, 200.354 359.092, 200.165 358.629, 199.963 358.210, 199.747 357.837, 199.519 357.368, 199.171 357.048, 198.994 356.654, 198.862 356.417, 198.811 356.147, 198.769 355.840, 198.735 355.490, 198.709 355.093, 198.688 354.644, 198.673 354.163, 198.663 353.772, 198.653 353.409, 198.638 353.053, 198.618 352.708, 198.592 352.379, 198.562 352.069, 198.528 351.783, 198.490 351.524, 198.449 351.105, 198.359 350.844, 198.263 350.545, 198.123 350.313, 198.042 350.071, 197.974 349.831, 197.924 349.529, 197.891 349.174, 197.842 348.927, 197.772 348.675, 197.677 348.431, 197.563 348.190, 197.421 347.915, 197.238 347.603, 197.091 347.303, 197.009 346.985, 197.021 346.721, 197.050 346.292, 197.020 345.730, 196.938 345.067, 196.813 344.332, 196.653 343.557, 196.464 342.773, 196.256 342.010, 196.036 341.301, 195.812 340.675, 195.591 340.165, 195.383 339.800, 195.194 339.497, 195.027 339.151, 194.878 338.783, 194.752 338.412, 194.656 338.059, 194.594 337.743, 194.574 337.254, 194.561 336.700, 194.514 336.094, 194.437 335.452, 194.333 334.788, 194.206 334.117, 194.060 333.455, 193.897 332.816, 193.722 332.236, 193.545 331.687, 193.355 331.182, 193.152 330.760, 192.948 330.532, 192.832 330.273, 192.715 330.001, 192.607 329.714, 192.508 329.409, 192.417 329.084, 192.334 328.736, 192.257 328.363, 192.187 327.962, 192.122 327.530, 192.063 327.066, 192.008 326.566, 191.957 326.174, 191.917 325.788, 191.874 325.412, 191.827 325.051, 191.778 324.708, 191.727 324.387, 191.675 324.094, 191.623 323.831, 191.571 323.413, 191.470 323.089, 191.338 322.791, 191.223 322.558, 191.158 322.314, 191.106 322.070, 191.070 321.728, 191.047 321.481, 191.011 321.218, 190.949 320.955, 190.866 320.704, 190.765 320.481, 190.652 320.268, 190.530 319.900, 190.399 319.658, 190.332 319.381, 190.265 319.076, 190.200 318.745, 190.136 318.394, 190.075 318.025, 190.017 317.645, 189.964 317.257, 189.917 316.865, 189.875 315.885, 189.771 314.927, 189.650 313.996, 189.513 313.095, 189.360 312.228, 189.194 311.400, 189.014 310.615, 188.821 309.876, 188.618 309.187, 188.404 308.553, 188.180 307.977, 187.947 307.464, 187.707 307.124, 187.538 306.824, 187.396 306.556, 187.278 306.087, 187.115 305.662, 187.038 305.225, 187.038 304.984, 187.063 304.719, 187.104 304.424, 187.158 304.008, 187.221 303.551, 187.260 303.061, 187.275 302.552, 187.268 302.032, 187.240 301.513, 187.191 301.005, 187.124 300.520, 187.040 300.067, 186.939 299.658, 186.823 299.303, 186.693 299.014, 186.550 298.725, 186.414 298.422, 186.326 298.142, 186.293 297.826, 186.338 297.452, 186.324 297.183, 186.298 296.865, 186.259 296.504, 186.209 296.105, 186.149 295.673, 186.079 295.214, 185.999 294.731, 185.911 294.231, 185.816 293.719, 185.714 292.634, 185.500 291.490, 185.288 290.347, 185.086 289.265, 184.907 288.304, 184.760 287.524, 184.654 287.212, 184.616 286.852, 184.570 286.520, 184.525 286.195, 184.480 285.905, 184.438 285.583, 184.389 285.305, 184.345 284.820, 184.263 284.459, 184.192 284.201, 184.133 283.775, 184.066 283.493, 184.028 282.815, 183.949 282.018, 183.868 281.142, 183.788 280.251, 183.717 279.742, 183.678 279.214, 183.636 278.651, 183.588 278.061, 183.537 277.452, 183.483 276.834, 183.426 276.214, 183.368 275.601, 183.309 275.002, 183.250 274.427, 183.191 273.883, 183.135 273.380, 183.080 270.684, 182.829 267.203, 182.580 263.101, 182.336 258.539, 182.104 253.678, 181.891 248.682, 181.700 243.711, 181.539 238.929, 181.413 234.497, 181.327 230.577, 181.287 227.331, 181.300 224.921, 181.370 221.852, 181.536 219.284, 181.687 217.191, 181.826 216.315, 181.891 215.549, 181.953 214.889, 182.013 214.332, 182.071 213.875, 182.128 213.514, 182.182 213.088, 182.249 212.663, 182.304 212.191, 182.355 211.767, 182.390 211.391, 182.410 211.086, 182.413 210.017, 182.459 208.543, 182.629 206.737, 182.906 204.672, 183.276 202.423, 183.720 200.063, 184.224 197.666, 184.770 195.305, 185.343 193.054, 185.926 190.987, 186.503 189.176, 187.058 187.697, 187.574 187.466, 187.662 187.201, 187.763 186.906, 187.874 186.585, 187.995 186.244, 188.124 185.888, 188.257 185.521, 188.395 185.148, 188.535 184.797, 188.666 184.405, 188.813 184.044, 188.948 183.361, 189.203 182.717, 189.454 182.132, 189.692 181.632, 189.906 181.246, 190.085 180.999, 190.216 180.784, 190.364 180.517, 190.468 180.234, 190.516 179.966, 190.560 179.598, 190.689 179.088, 190.892 178.459, 191.158 177.735, 191.478 176.939, 191.839 176.094, 192.231 175.225, 192.644 174.355, 193.066 173.507, 193.487 172.705, 193.895 171.973, 194.281 171.065, 194.769 169.443, 195.654 168.034, 196.438 167.395, 196.801 166.791, 197.149 166.215, 197.487 165.663, 197.817 165.127, 198.144 164.601, 198.470 163.772, 198.994 163.412, 199.224 163.064, 199.445 162.363, 199.891 162.019, 200.109 161.367, 200.524 160.792, 200.890 160.543, 201.048 160.525, 201.059 160.545, 201.046 160.543, 201.048 159.949, 201.427 159.591, 201.662 159.239, 201.900 158.876, 202.154 158.486, 202.438 158.050, 202.763 157.552, 203.145 156.298, 204.127 154.586, 205.488 153.516, 206.344 152.414, 207.253 151.250, 208.266 150.041, 209.365 148.804, 210.532 147.557, 211.749 146.318, 212.998 145.105, 214.260 143.935, 215.518 142.825, 216.753 141.794, 217.948 140.860, 219.084 140.039, 220.143 139.711, 220.596 139.339, 221.135 138.930, 221.747 138.495, 222.417 138.040, 223.131 137.577, 223.874 137.112, 224.633 136.656, 225.392 136.217, 226.138 135.804, 226.856 135.425, 227.531 134.948, 228.419 134.784, 228.728 134.634, 229.008 134.488, 229.279 134.349, 229.537 134.218, 229.779 134.096, 230.001 133.888, 230.377 133.740, 230.640 133.568, 230.939 133.419, 231.233 133.246, 231.597 133.052, 232.028 132.837, 232.523 132.604, 233.077 132.353, 233.687 132.087, 234.349 131.514, 235.813 130.905, 237.417 130.744, 237.848 130.575, 238.294 130.418, 238.708 130.266, 239.106 130.120, 239.484 129.983, 239.837 129.856, 240.162 129.741, 240.453 129.639, 240.705 129.484, 241.078 129.317, 241.475 129.171, 241.894 129.001, 242.427 128.813, 243.058 128.611, 243.766 128.400, 244.536 128.185, 245.348 127.970, 246.184 127.761, 247.026 127.563, 247.856 127.380, 248.657 127.218, 249.409 126.941, 250.762 126.694, 252.036 126.473, 253.242 126.279, 254.390 126.109, 255.493 125.963, 256.559 125.838, 257.602 125.733, 258.630 125.648, 259.656 125.580, 260.690 125.528, 261.744 125.491, 262.827 125.476, 263.285 125.457, 263.736 125.434, 264.175 125.407, 264.598 125.378, 264.999 125.348, 265.350 125.312, 265.718 125.276, 266.026 125.239, 266.293 125.163, 266.687 125.035, 267.022 124.906, 267.412 124.848, 267.770 124.863, 268.136 124.952, 268.550 125.025, 268.788 125.117, 269.052 125.229, 269.349 125.364, 269.723 125.449, 270.028 125.486, 270.269 125.452, 270.528 125.253, 270.726 125.116, 270.988 125.116, 271.306 125.165, 271.587 125.252, 271.932 125.323, 272.257 125.373, 272.644 125.402, 273.070 125.409, 273.511 125.392, 273.945 125.351, 274.346 125.278, 274.998 125.221, 275.770 125.182, 276.630 125.158, 277.548 125.150, 278.493 125.157, 279.434 125.179, 280.340 125.215, 281.180 125.265, 281.923 125.328, 282.538 125.404, 282.995 125.492, 283.262 125.618, 283.698 125.682, 283.970 125.754, 284.295 125.835, 284.669 125.922, 285.086 126.014, 285.541 126.112, 286.029 126.212, 286.544 126.314, 287.081 126.526, 288.203 126.759, 289.359 127.004, 290.493 127.250, 291.551 127.368, 292.033 127.481, 292.475 127.588, 292.868 127.686, 293.207 127.848, 293.710 127.933, 293.991 128.006, 294.256 128.074, 294.522 128.136, 294.787 128.192, 295.048 128.240, 295.301 128.280, 295.542 128.335, 295.977 128.349, 296.324 128.356, 296.624 128.390, 296.949 128.450, 297.293 128.533, 297.651 128.637, 298.018 128.760, 298.388 128.901, 298.756 129.057, 299.115 129.226, 299.461 129.408, 299.788 129.598, 300.091 129.796, 300.364 129.954, 300.607 130.150, 300.976 130.258, 301.198 130.371, 301.442 130.488, 301.703 130.605, 301.979 130.724, 302.265 130.840, 302.559 130.954, 302.857 131.063, 303.155 131.296, 303.779 131.559, 304.438 131.836, 305.096 132.112, 305.718 132.373, 306.271 132.493, 306.511 132.701, 306.899 132.816, 307.114 132.947, 307.361 133.068, 307.594 133.191, 307.833 133.313, 308.072 133.433, 308.310 133.550, 308.543 133.661, 308.767 133.859, 309.179 134.047, 309.555 134.196, 309.795 134.386, 310.077 134.613, 310.393 134.874, 310.740 135.164, 311.112 135.479, 311.504 135.816, 311.911 136.169, 312.327 136.535, 312.748 136.911, 313.169 137.808, 314.144 138.286, 314.670 139.010, 315.503 139.281, 315.839 139.497, 316.131 139.661, 316.383 139.779, 316.601 139.892, 316.964 139.869, 317.267 139.807, 317.573 139.840, 317.823 140.168, 317.927 140.614, 318.273 140.948, 318.569 141.348, 318.939 141.807, 319.376 142.318, 319.873 142.875, 320.426 143.471, 321.027 144.084, 321.653 144.757, 322.349 145.432, 323.057 146.113, 323.772 146.785, 324.467 147.440, 325.137 148.071, 325.774 148.670, 326.371 149.231, 326.922 149.747, 327.418 150.209, 327.854 150.612, 328.221 150.947, 328.514 151.207, 328.725 151.850, 329.127 152.204, 329.364 152.571, 329.623 152.931, 329.892 153.264, 330.155 154.476, 331.163 155.615, 332.065 156.823, 332.983 158.093, 333.910 159.417, 334.842 160.786, 335.773 162.194, 336.698 163.633, 337.613 165.094, 338.511 166.570, 339.387 168.054, 340.237 169.536, 341.055 170.501, 341.574 171.404, 342.054 172.261, 342.503 173.089, 342.927 173.904, 343.336 174.721, 343.737 175.558, 344.138 176.432, 344.547 177.357, 344.972 178.351, 345.421 179.430, 345.901 180.611, 346.421 180.940, 346.556 181.560, 346.788 182.255, 347.033 182.619, 347.156 182.869, 347.245 183.168, 347.353 183.509, 347.478 183.888, 347.618 184.299, 347.772 184.735, 347.936 185.192, 348.109 185.663, 348.288 186.143, 348.472 186.627, 348.659 187.592, 349.033 188.588, 349.411 189.575, 349.778 190.504, 350.116 191.325, 350.406 191.989, 350.630 193.605, 351.130 194.864, 351.512 196.031, 351.862 197.115, 352.181 198.122, 352.471 199.063, 352.735 199.945, 352.975 200.776, 353.194 201.564, 353.393 202.318, 353.575 203.046, 353.742 204.183, 353.988 204.674, 354.094 205.155, 354.199 205.642, 354.306 206.129, 354.415 206.609, 354.523 207.076, 354.629 207.524, 354.732 207.946, 354.830 208.336, 354.921 208.688, 355.005 209.301, 355.153 210.037, 355.310 210.897, 355.476 211.830, 355.643 212.787, 355.800 213.718, 355.939 214.584, 356.058 215.008, 356.119 215.424, 356.182 215.827, 356.246 216.212, 356.311 216.575, 356.375 216.911, 356.438 217.216, 356.498 217.484, 356.556 217.892, 356.658 218.410, 356.828 218.933, 356.967 219.575, 357.113 220.318, 357.264 221.146, 357.417 222.042, 357.571 222.988, 357.721 223.969, 357.865 224.967, 358.000 225.965, 358.124 226.947, 358.234 227.895, 358.326 228.294, 358.363 228.735, 358.405 229.210, 358.452 229.712, 358.502 230.233, 358.556 230.767, 358.612 231.306, 358.670 231.843, 358.729 232.371, 358.788 232.882, 358.846 233.370, 358.902 235.133, 359.106 236.482, 359.243 237.914, 359.371 239.464, 359.491 241.171, 359.605 243.071, 359.715 245.202, 359.823 247.602, 359.931 250.308, 360.042 253.357, 360.157 256.786, 360.278 260.634, 360.407 262.763, 360.475 264.833, 360.535 266.825, 360.588 268.718, 360.633 270.495, 360.670 272.135, 360.699 273.619, 360.719 274.927, 360.730 276.040, 360.732 276.939, 360.725 277.603, 360.707 278.015, 360.679 279.976, 360.566 283.385, 360.499 287.994, 360.473 293.555, 360.486 299.822, 360.534 306.546, 360.614 313.482, 360.722 320.380, 360.856 326.995, 361.010 333.078, 361.183 338.383, 361.370 342.662, 361.569 344.652, 361.684 347.052, 361.829 349.765, 361.999 352.696, 362.187 355.749, 362.386 358.828, 362.591 361.839, 362.795 364.684, 362.991 367.269, 363.173 369.498, 363.335 371.275, 363.470 372.505, 363.572 372.907, 363.606 372.915, 363.607 372.891, 363.605 372.907, 363.606 373.822, 363.681 374.935, 363.764 374.911, 363.764 376.095, 363.849 377.286, 363.928 377.310, 363.933 378.492, 364.010 381.084, 364.170 382.940, 364.288 384.641, 364.400 386.213, 364.508 387.679, 364.613 389.064, 364.719 390.392, 364.826 391.686, 364.936 392.971, 365.052 394.272, 365.175 395.611, 365.308 397.037, 365.454 397.013, 365.451 397.777, 365.529 398.515, 365.601 398.539, 365.605 399.260, 365.675 399.881, 365.732 399.905, 365.735 400.437, 365.782 401.689, 365.879 402.602, 365.951 403.536, 366.028 404.473, 366.108 405.394, 366.190 406.279, 366.271 407.111, 366.351 407.870, 366.426 408.536, 366.495 409.092, 366.557 409.518, 366.610 409.795, 366.652 410.123, 366.704 410.859, 366.799 411.465, 366.869 412.123, 366.939 412.782, 366.993 412.803, 367.006 413.486, 367.068 413.851, 367.102 414.230, 367.138 414.617, 367.175 415.007, 367.213 415.396, 367.252 415.778, 367.290 416.147, 367.328 416.499, 367.365 416.829, 367.400 417.131, 367.433 417.424, 367.465 417.400, 367.463 417.979, 367.527 417.955, 367.525 418.614, 367.596 418.590, 367.594 419.270, 367.666 419.933, 367.734 419.957, 367.738 420.613, 367.805 421.203, 367.864 421.512, 367.895 421.891, 367.935 422.331, 367.984 422.824, 368.039 423.363, 368.101 423.940, 368.168 424.546, 368.239 425.174, 368.313 425.815, 368.390 426.462, 368.469 427.107, 368.548 427.766, 368.630 427.742, 368.627 429.084, 368.794 429.060, 368.791 430.480, 368.968 430.456, 368.965 431.833, 369.135 431.857, 369.139 433.164, 369.300 433.187, 369.303 434.351, 369.447 434.375, 369.450 435.344, 369.570 436.389, 369.701 437.508, 369.848 438.687, 370.008 439.909, 370.179 441.159, 370.358 442.419, 370.543 443.675, 370.732 444.910, 370.922 446.109, 371.111 447.254, 371.296 448.355, 371.480 449.347, 371.651 449.323, 371.647 450.321, 371.819 450.297, 371.815 451.498, 372.019 452.875, 372.248 452.852, 372.245 454.281, 372.481 455.689, 372.709 456.427, 372.829 456.428, 372.830 456.405, 372.826 456.427, 372.829 458.086, 373.095 459.039, 373.249 459.933, 373.395 460.773, 373.533 461.565, 373.665 462.314, 373.791 463.024, 373.913 463.701, 374.031 464.351, 374.146 464.977, 374.258 465.609, 374.375 466.181, 374.481 466.481, 374.534 467.240, 374.654 467.216, 374.651 467.848, 374.748 468.578, 374.856 468.944, 374.912 468.947, 374.912 468.923, 374.909 468.944, 374.912 469.676, 375.018 470.097, 375.081 470.602, 375.160 471.181, 375.254 471.823, 375.361 472.519, 375.479 473.257, 375.607 474.029, 375.742 474.824, 375.883 475.631, 376.028 476.441, 376.175 477.243, 376.323 478.051, 376.475 478.835, 376.622 478.841, 376.623 478.818, 376.619 478.835, 376.622 480.472, 376.926 482.129, 377.229 482.153, 377.235 483.772, 377.529 485.221, 377.788 485.245, 377.793 486.482, 378.010 488.838, 378.411 488.861, 378.415 491.618, 378.882 495.029, 379.453 497.444, 379.847 498.348, 379.988 499.088, 380.098 499.690, 380.181 500.185, 380.242 500.599, 380.286 500.961, 380.316 501.444, 380.362 502.131, 380.440 502.984, 380.546 503.962, 380.674 505.026, 380.819 506.137, 380.974 507.257, 381.134 508.345, 381.295 509.362, 381.449 510.270, 381.593 511.028, 381.719 511.622, 381.827 511.599, 381.823 512.215, 381.938 512.902, 382.055 513.724, 382.183 514.750, 382.332 516.045, 382.511 517.677, 382.732 518.117, 382.792 518.597, 382.858 519.109, 382.929 519.645, 383.005 520.198, 383.084 520.761, 383.165 521.325, 383.247 521.883, 383.328 522.429, 383.409 522.952, 383.487 523.448, 383.562 524.355, 383.699 525.289, 383.831 526.232, 383.953 527.136, 384.060 527.953, 384.146 528.633, 384.205 529.154, 384.238 529.396, 384.255 529.852, 384.295 530.255, 384.340 530.587, 384.387 530.827, 384.434 531.213, 384.566 531.757, 384.679 532.567, 384.818 533.625, 384.980 534.911, 385.161 536.405, 385.360 538.090, 385.574 539.945, 385.801 541.951, 386.038 544.090, 386.282 546.342, 386.531 548.688, 386.783 551.779, 387.039 556.074, 387.292 561.328, 387.536 567.297, 387.765 573.734, 387.973 580.395, 388.155 587.035, 388.303 593.409, 388.412 599.270, 388.476 604.376, 388.489 608.479, 388.445 611.335, 388.337 611.739, 388.314 612.016, 388.301 612.334, 388.287 612.690, 388.272 613.077, 388.256 613.491, 388.240 613.925, 388.224 614.375, 388.208 614.834, 388.192 615.299, 388.177 615.769, 388.162 615.787, 388.161 615.763, 388.162 615.769, 388.162 616.697, 388.130 617.598, 388.093 617.622, 388.094 618.494, 388.056 619.268, 388.018 619.899, 387.982 620.539, 387.934 620.783, 387.917 621.072, 387.900 621.399, 387.882 621.760, 387.864 622.149, 387.846 622.585, 387.827 623.014, 387.809 623.431, 387.793 623.879, 387.777 624.328, 387.763 625.224, 387.735 626.174, 387.695 627.143, 387.644 628.083, 387.584 628.941, 387.520 629.668, 387.453 630.269, 387.385 630.625, 387.348 631.028, 387.309 631.471, 387.268 631.946, 387.225 632.472, 387.181 632.969, 387.140 633.502, 387.098 634.041, 387.057 634.579, 387.018 635.108, 386.981 635.622, 386.947 637.466, 386.817 639.510, 386.653 641.703, 386.460 643.992, 386.244 646.326, 386.010 648.655, 385.764 650.927, 385.511 653.090, 385.257 655.094, 385.008 656.887, 384.769 658.417, 384.545 659.634, 384.343 659.962, 384.284 660.309, 384.224 660.671, 384.163 661.043, 384.102 661.420, 384.041 661.797, 383.982 662.168, 383.925 662.529, 383.872 662.874, 383.822 663.199, 383.776 663.523, 383.733 663.792, 383.700 664.771, 383.577 665.944, 383.424 668.633, 383.058 671.502, 382.651 674.217, 382.253 675.413, 382.072 676.445, 381.911 677.272, 381.776 677.852, 381.674 678.105, 381.629 678.349, 381.595 678.675, 381.562 678.920, 381.556 679.215, 381.571 679.570, 381.526 679.868, 381.473 680.200, 381.405 680.549, 381.324 681.005, 381.223 681.302, 381.164 681.637, 381.101 682.005, 381.034 682.401, 380.964 682.843, 380.888 683.254, 380.820 683.700, 380.748 684.151, 380.677 684.627, 380.605 684.603, 380.608 685.512, 380.473 686.540, 380.307 687.652, 380.115 688.788, 379.907 689.887, 379.694 690.888, 379.488 691.779, 379.292 692.272, 379.183 692.801, 379.068 693.360, 378.947 693.941, 378.822 694.534, 378.695 695.133, 378.568 695.730, 378.442 696.315, 378.319 696.881, 378.201 697.445, 378.085 697.930, 377.985 697.950, 377.981 697.926, 377.986 697.930, 377.985 698.916, 377.781 699.889, 377.573 699.913, 377.571 700.868, 377.365 701.731, 377.174 702.454, 377.010 702.987, 376.882 704.532, 376.492 706.114, 376.085 707.758, 375.655 709.484, 375.196 711.316, 374.703 713.275, 374.170 713.843, 374.015 714.399, 373.864 714.940, 373.718 715.459, 373.579 715.951, 373.448 716.408, 373.326 716.826, 373.217 717.199, 373.120 717.520, 373.037 717.784, 372.971 718.117, 372.892 718.400, 372.816 718.658, 372.713 719.047, 372.414 719.302, 372.278 719.557, 372.231 719.828, 372.197 720.225, 372.097 720.792, 371.935 721.513, 371.717 722.370, 371.449 723.344, 371.137 724.417, 370.787 725.572, 370.404 726.791, 369.994 728.056, 369.563 729.348, 369.116 730.963, 368.551 731.304, 368.431 731.669, 368.304 732.052, 368.170 732.448, 368.032 732.873, 367.884 733.277, 367.743 733.678, 367.604 734.070, 367.468 734.447, 367.338 734.804, 367.215 735.136, 367.100 735.985, 366.805 736.847, 366.498 737.693, 366.191 738.518, 365.885 739.315, 365.582 740.079, 365.286 740.802, 364.998 741.478, 364.721 742.103, 364.458 742.669, 364.211 743.170, 363.982 743.987, 363.586 744.360, 363.418 744.703, 363.275 744.998, 363.166 745.227, 363.096 745.527, 363.048 745.770, 362.977 746.086, 362.867 746.456, 362.723 746.861, 362.553 747.701, 362.174 748.096, 362.003 748.448, 361.858 748.742, 361.745 749.034, 361.653 749.405, 361.556 749.830, 361.409 750.386, 361.205 751.046, 360.956 751.778, 360.671 752.559, 360.361 752.971, 360.198 753.392, 360.033 753.816, 359.866 754.238, 359.701 754.653, 359.539 755.055, 359.383 755.439, 359.235 755.821, 359.088 756.151, 358.961 756.446, 358.849 756.679, 358.762 757.561, 358.417 758.667, 357.961 759.953, 357.413 761.377, 356.792 762.898, 356.118 764.474, 355.409 766.063, 354.684 767.622, 353.962 769.110, 353.263 770.484, 352.605 771.704, 352.007 773.056, 351.317 773.407, 351.137 773.772, 350.950 774.148, 350.760 774.528, 350.567 774.908, 350.376 775.282, 350.188 775.646, 350.006 775.995, 349.833 776.323, 349.671 776.625, 349.523 777.156, 349.264 777.690, 348.993 778.223, 348.710 778.726, 348.432 779.174, 348.172 779.539, 347.945 779.831, 347.750 780.239, 347.499 780.490, 347.352 780.767, 347.193 781.066, 347.025 781.383, 346.849 781.713, 346.670 782.052, 346.488 782.397, 346.306 782.743, 346.126 783.465, 345.753 783.917, 345.507 784.433, 345.219 785.005, 344.892 785.622, 344.534 786.958, 343.742 788.370, 342.885 789.786, 342.006 791.150, 341.141 791.823, 340.713 792.484, 340.293 793.126, 339.884 793.742, 339.493 794.323, 339.124 794.863, 338.781 795.354, 338.469 795.788, 338.194 796.158, 337.960 796.476, 337.758 796.456, 337.771 797.082, 337.370 797.578, 337.042 798.130, 336.668 798.709, 336.269 799.284, 335.867 799.576, 335.660 799.580, 335.658 799.560, 335.672 799.576, 335.660 800.108, 335.280 800.441, 335.042 800.818, 334.773 801.232, 334.478 801.676, 334.162 802.145, 333.829 802.631, 333.483 803.129, 333.131 803.632, 332.774 804.133, 332.420 804.626, 332.071 805.105, 331.733 807.021, 330.337 809.030, 328.790 811.110, 327.112 813.241, 325.321 815.401, 323.438 817.568, 321.482 819.723, 319.472 821.842, 317.429 823.906, 315.371 825.892, 313.318 827.780, 311.289 829.547, 309.305 831.155, 307.449 831.808, 306.687 832.378, 306.015 832.878, 305.416 833.319, 304.876 833.714, 304.378 834.077, 303.907 834.419, 303.448 834.754, 302.985 835.094, 302.502 835.568, 301.813 835.707, 301.614 835.865, 301.390 836.038, 301.146 836.225, 300.885 836.422, 300.611 836.628, 300.328 836.838, 300.038 837.051, 299.747 837.263, 299.457 837.472, 299.173 837.676, 298.898 838.194, 298.187 838.723, 297.432 839.252, 296.651 839.771, 295.862 840.269, 295.083 840.736, 294.330 841.160, 293.621 841.532, 292.973 841.840, 292.403 842.075, 291.930 842.225, 291.571 842.301, 291.189 842.387, 290.941 842.527, 290.700 842.703, 290.494 842.964, 290.208 843.263, 289.761 843.644, 289.135 844.087, 288.369 844.572, 287.500 845.079, 286.567 845.586, 285.608 846.073, 284.661 846.520, 283.764 846.907, 282.955 847.213, 282.273 847.417, 281.756 847.545, 281.405 847.703, 281.000 847.880, 280.564 847.974, 280.342 848.068, 280.121 848.256, 279.695 848.434, 279.309 848.621, 278.886 848.818, 278.386 849.021, 277.819 849.228, 277.193 849.437, 276.518 849.645, 275.804 849.849, 275.060 850.047, 274.295 850.236, 273.518 850.413, 272.739 850.576, 271.967 850.777, 270.922 850.838, 270.632 850.902, 270.345 850.969, 270.065 851.037, 269.796 851.107, 269.540 851.254, 269.059 851.376, 268.717 851.492, 268.473 851.615, 268.104 851.679, 267.796 851.743, 267.409 851.808, 266.947 851.873, 266.413 851.939, 265.809 852.003, 265.140 852.067, 264.409 852.129, 263.617 852.190, 262.770 852.300, 261.055 852.350, 260.259 852.398, 259.491 852.445, 258.758 852.488, 258.067 852.529, 257.429 852.566, 256.850 852.599, 256.338 852.628, 255.903 852.652, 255.528 852.651, 255.552 852.742, 254.160 852.783, 253.190 852.801, 252.220 852.796, 251.244 852.768, 250.256 852.716, 249.251 852.639, 248.224 852.539, 247.168 852.413, 246.078 852.263, 244.948 852.087, 243.772 851.885, 242.546 851.582, 240.808 851.300, 239.256 851.028, 237.852 850.755, 236.560 850.473, 235.342 850.171, 234.160 849.838, 232.976 849.466, 231.754 849.042, 230.455 848.559, 229.042 848.005, 227.477 847.371, 225.724 846.903, 224.512 846.343, 223.182 845.710, 221.769 845.021, 220.309 844.295, 218.835 843.551, 217.384 842.806, 215.989 842.079, 214.685 841.387, 213.508 840.750, 212.493 840.186, 211.674 839.583, 210.943 839.326, 210.643 839.077, 210.337 838.850, 210.040 838.656, 209.768 838.455, 209.444 838.271, 209.115 838.004, 208.671 837.668, 208.131 837.278, 207.519 836.847, 206.854 836.391, 206.159 835.922, 205.455 835.455, 204.764 835.004, 204.106 834.584, 203.504 834.209, 202.978 833.893, 202.551 832.920, 201.351 831.702, 199.974 830.282, 198.461 828.706, 196.855 827.018, 195.197 825.263, 193.530 823.487, 191.895 821.734, 190.335 820.050, 188.891 818.479, 187.607 817.066, 186.523 815.857, 185.683 815.582, 185.503 815.249, 185.281 814.865, 185.022 814.438, 184.732 813.973, 184.413 813.479, 184.073 812.961, 183.715 812.428, 183.343 811.885, 182.964 811.341, 182.582 810.801, 182.201 810.128, 181.724 809.848, 181.532 809.591, 181.363 809.277, 181.170 808.997, 181.044 808.707, 180.892 808.481, 180.765 808.206, 180.608 807.887, 180.424 807.529, 180.215 807.137, 179.984 806.714, 179.733 806.266, 179.465 805.796, 179.183 804.805, 178.586 803.740, 177.963 802.651, 177.343 801.594, 176.758 800.626, 176.240 800.193, 176.016 799.804, 175.820 799.154, 175.509 798.845, 175.361 798.540, 175.215 798.244, 175.071 797.960, 174.932 797.692, 174.800 797.443, 174.675 797.216, 174.561 796.844, 174.368 796.604, 174.235 795.812, 173.828 794.580, 173.277 792.980, 172.609 791.084, 171.851 788.965, 171.030 786.694, 170.172 784.344, 169.305 781.988, 168.456 779.697, 167.652 777.544, 166.920 775.601, 166.286 773.940, 165.778 773.430, 165.629 772.901, 165.474 772.362, 165.315 771.820, 165.156 771.281, 164.997 770.752, 164.840 770.240, 164.689 769.753, 164.544 769.297, 164.408 768.880, 164.283 768.508, 164.171 767.220, 163.782 765.527, 163.279 764.076, 162.863 763.409, 162.680 762.765, 162.508 762.131, 162.344 761.494, 162.185 760.164, 161.867 759.039, 161.609 758.645, 161.517 758.267, 161.426 757.908, 161.339 757.573, 161.256 757.266, 161.177 756.990, 161.105 756.750, 161.040 756.392, 160.934 756.092, 160.816 755.840, 160.744 755.490, 160.659 755.062, 160.564 754.577, 160.465 754.056, 160.367 753.776, 160.316 753.468, 160.257 753.138, 160.192 752.792, 160.122 752.433, 160.049 752.068, 159.972 751.700, 159.894 751.335, 159.815 750.978, 159.736 750.633, 159.658 750.306, 159.583 748.438, 159.151 746.617, 158.756 744.586, 158.335 742.393, 157.896 740.087, 157.449 737.715, 157.003 735.326, 156.566 732.969, 156.148 730.691, 155.757 728.541, 155.402 726.566, 155.093 724.241, 154.757 723.685, 154.677 723.154, 154.599 722.653, 154.524 722.188, 154.452 721.763, 154.384 721.385, 154.322 721.058, 154.265 720.581, 154.175 720.313, 154.097 719.989, 154.036 719.435, 153.955 718.690, 153.858 717.794, 153.752 717.286, 153.696 717.278, 153.695 717.302, 153.697 717.286, 153.696 716.256, 153.587 715.707, 153.529 715.141, 153.467 714.567, 153.402 713.990, 153.335 713.420, 153.266 712.863, 153.197 712.327, 153.128 711.818, 153.060 711.345, 152.995 710.915, 152.933 710.534, 152.875 710.210, 152.822 708.519, 152.565 706.385, 152.295 703.868, 152.016 701.025, 151.734 697.916, 151.452 694.601, 151.175 691.138, 150.909 687.587, 150.658 684.007, 150.426 680.456, 150.219 676.994, 150.041 673.679, 149.896 669.498, 149.763 665.192, 149.684 660.789, 149.657 656.319, 149.682 651.811, 149.757 647.293, 149.883 642.796, 150.057 638.348, 150.279 633.977, 150.548 629.714, 150.863 625.587, 151.223 621.625, 151.626 620.273, 151.782 618.716, 151.973 617.008, 152.192 615.199, 152.431 613.340, 152.684 611.483, 152.943 609.680, 153.201 607.981, 153.450 606.438, 153.684 605.102, 153.895 604.024, 154.076 603.257, 154.220 602.946, 154.283 602.566, 154.357 602.125, 154.443 601.632, 154.537 601.093, 154.638 600.518, 154.746 599.913, 154.858 599.287, 154.973 598.648, 155.090 598.004, 155.207 597.362, 155.323 596.722, 155.437 596.708, 155.439 596.731, 155.435 596.722, 155.437 595.445, 155.669 594.124, 155.919 592.835, 156.171 591.646, 156.412 590.622, 156.629 589.833, 156.808 589.101, 156.984 588.241, 157.190 587.779, 157.301 587.756, 157.306 587.780, 157.301 587.779, 157.301 586.849, 157.530 586.320, 157.651 586.344, 157.646 585.432, 157.865 584.966, 157.977 584.944, 157.982 584.967, 157.976 584.966, 157.977 584.134, 158.177 583.225, 158.404 582.258, 158.652 581.286, 158.908 580.361, 159.157 579.536, 159.386 578.830, 159.588 578.470, 159.690 578.101, 159.793 577.728, 159.897 577.356, 159.999 576.990, 160.098 576.634, 160.193 576.294, 160.283 575.974, 160.367 575.679, 160.442 575.160, 160.570 574.391, 160.758 573.538, 160.976 572.646, 161.211 571.737, 161.458 570.831, 161.710 569.951, 161.961 569.118, 162.205 568.352, 162.437 567.676, 162.648 567.110, 162.835 566.677, 162.990 566.102, 163.230 565.681, 163.378 565.432, 163.459 565.163, 163.542 564.876, 163.628 564.577, 163.713 564.268, 163.799 563.953, 163.883 563.637, 163.964 563.322, 164.041 562.991, 164.121 562.983, 164.123 563.006, 164.117 562.991, 164.121 562.367, 164.280 561.742, 164.446 561.164, 164.608 560.902, 164.685 560.452, 164.824 560.125, 164.937 559.765, 165.069 559.512, 165.159 559.217, 165.263 558.886, 165.378 558.524, 165.503 558.135, 165.637 557.725, 165.777 557.298, 165.922 556.860, 166.071 556.416, 166.220 554.395, 166.899 552.917, 167.402 551.523, 167.885 550.202, 168.351 548.939, 168.805 547.723, 169.253 546.541, 169.698 545.379, 170.146 544.225, 170.601 543.067, 171.068 541.892, 171.552 540.303, 172.219 539.932, 172.373 539.575, 172.520 539.237, 172.657 538.921, 172.783 538.631, 172.897 538.370, 172.997 537.953, 173.151 537.643, 173.243 537.394, 173.312 537.077, 173.429 536.667, 173.593 536.184, 173.794 535.651, 174.023 533.948, 174.775 532.208, 175.537 530.228, 176.398 528.081, 177.328 525.818, 178.305 523.558, 179.277 521.375, 180.213 519.297, 181.100 517.422, 181.897 515.822, 182.573 514.572, 183.095 513.746, 183.432 513.167, 183.676 512.391, 184.023 511.608, 184.386 511.354, 184.504 511.046, 184.643 510.669, 184.812 510.231, 185.006 509.739, 185.222 509.223, 185.448 508.623, 185.709 507.993, 185.982 507.360, 186.255 506.733, 186.524 506.076, 186.806 505.417, 187.086 504.738, 187.376 504.731, 187.379 504.753, 187.369 504.738, 187.376 503.415, 187.943 502.136, 188.496 502.113, 188.505 500.914, 189.026 499.881, 189.480 499.079, 189.837 498.549, 190.078 498.289, 190.195 498.027, 190.309 497.769, 190.421 497.494, 190.536 497.229, 190.646 496.998, 190.739 496.609, 190.889 496.286, 191.003 496.038, 191.080 495.672, 191.215 495.440, 191.306 494.897, 191.529 494.276, 191.794 493.609, 192.088 492.949, 192.388 492.574, 192.559 492.196, 192.729 491.798, 192.905 491.388, 193.084 490.970, 193.264 490.572, 193.433 490.156, 193.609 489.726, 193.787 489.312, 193.956 488.962, 194.097 488.616, 194.233 488.302, 194.354 487.970, 194.482 487.963, 194.484 487.986, 194.476 487.970, 194.482 487.250, 194.765 486.418, 195.101 485.537, 195.463 484.654, 195.833 483.816, 196.191 483.081, 196.510 482.700, 196.673 482.378, 196.810 482.052, 196.947 481.747, 197.073 481.467, 197.187 481.216, 197.287 480.791, 197.449 480.204, 197.618 479.585, 197.833 479.032, 198.036 478.400, 198.276 477.737, 198.534 477.365, 198.679 477.021, 198.810 476.665, 198.942 476.368, 199.049 476.065, 199.156 475.783, 199.252 475.526, 199.336 475.296, 199.407 474.936, 199.507 474.664, 199.544 474.378, 199.615 474.133, 199.705 473.861, 199.822 473.576, 199.960 473.009, 200.270 472.725, 200.409 472.455, 200.527 472.107, 200.650 471.802, 200.695 471.527, 200.741 471.291, 200.801 471.030, 200.878 470.757, 200.971 470.104, 201.220 469.578, 201.409 468.992, 201.610 468.343, 201.826 467.672, 202.044 466.927, 202.279 466.197, 202.505 465.477, 202.723 464.785, 202.926 464.138, 203.110 463.557, 203.268 462.558, 203.526 461.927, 203.702 461.206, 203.912 460.436, 204.144 459.657, 204.386 458.932, 204.619 458.545, 204.742 458.176, 204.853 457.807, 204.958 457.441, 205.056 457.083, 205.146 456.738, 205.227 456.434, 205.293 456.104, 205.358 455.801, 205.410 455.363, 205.462 455.028, 205.470 454.657, 205.496 454.241, 205.548 453.805, 205.622 453.371, 205.715 452.963, 205.822 452.591, 205.937 452.198, 206.043 451.815, 206.130 451.392, 206.208 451.023, 206.258 450.705, 206.282 450.446, 206.283 450.180, 206.296 449.909, 206.328 449.646, 206.375 449.406, 206.434 449.119, 206.542 448.803, 206.635 448.532, 206.691 448.194, 206.753 447.820, 206.817 447.368, 206.887 446.845, 206.964 446.328, 207.035 445.752, 207.111 445.124, 207.189 444.499, 207.263 443.694, 207.352 443.673, 207.355 " fill="none" stroke="rgb(0, 0, 0)" stroke-linecap="butt" stroke-linejoin="round" stroke-opacity="1.0" stroke-width="3.0" />
            <path d=" M 438.278, 207.955 437.096, 208.090 " fill="none" stroke="rgb(0, 0, 0)" stroke-linecap="butt" stroke-linejoin="round" stroke-opacity="1.0" stroke-width="3.0" />
            <path d=" M 398.926, 206.997 397.623, 206.873 396.321, 206.750 397.607, 206.874 " fill="none" stroke="rgb(0, 0, 0)" stroke-linecap="butt" stroke-linejoin="round" stroke-opacity="1.0" stroke-width="3.0" />
            <path d=" M 463.557, 203.268 462.558, 203.526 " fill="none" stroke="rgb(0, 0, 0)" stroke-linecap="butt" stroke-linejoin="round" stroke-opacity="1.0" stroke-width="3.0" />
            <path d=" M 470.757, 200.971 470.104, 201.220 " fill="none" stroke="rgb(0, 0, 0)" stroke-linecap="butt" stroke-linejoin="round" stroke-opacity="1.0" stroke-width="3.0" />
            <path d=" M 478.400, 198.276 477.737, 198.534 " fill="none" stroke="rgb(0, 0, 0)" stroke-linecap="butt" stroke-linejoin="round" stroke-opacity="1.0" stroke-width="3.0" />
            <path d=" M 484.654, 195.833 483.816, 196.191 " fill="none" stroke="rgb(0, 0, 0)" stroke-linecap="butt" stroke-linejoin="round" stroke-opacity="1.0" stroke-width="3.0" />
            <path d=" M 494.276, 191.794 493.609, 192.088 492.949, 192.388 " fill="none" stroke="rgb(0, 0, 0)" stroke-linecap="butt" stroke-linejoin="round" stroke-opacity="1.0" stroke-width="3.0" />
            <path d=" M 535.651, 174.023 533.948, 174.775 " fill="none" stroke="rgb(0, 0, 0)" stroke-linecap="butt" stroke-linejoin="round" stroke-opacity="1.0" stroke-width="3.0" />
            <path d=" M 481.467, 197.187 490.758, 193.488 500.049, 189.789 509.340, 186.091 518.630, 182.392 527.921, 178.693 537.212, 174.995 546.503, 171.296 555.794, 167.597 565.085, 163.899 569.951, 161.961 560.660, 165.660 551.370, 169.359 542.079, 173.057 532.788, 176.756 523.497, 180.455 514.206, 184.153 504.916, 187.852 495.625, 191.551 486.334, 195.250 481.216, 197.287 " fill="none" stroke="rgb(0, 0, 0)" stroke-linecap="butt" stroke-linejoin="round" stroke-opacity="1.0" stroke-width="3.0" />
            <path d=" M 579.536, 159.386 578.830, 159.588 " fill="none" stroke="rgb(0, 0, 0)" stroke-linecap="butt" stroke-linejoin="round" stroke-opacity="1.0" stroke-width="3.0" />
            <path d=" M 584.944, 157.982 584.134, 158.177 " fill="none" stroke="rgb(0, 0, 0)" stroke-linecap="butt" stroke-linejoin="round" stroke-opacity="1.0" stroke-width="3.0" />
            <path d=" M 586.849, 157.530 587.756, 157.306 " fill="none" stroke="rgb(0, 0, 0)" stroke-linecap="butt" stroke-linejoin="round" stroke-opacity="1.0" stroke-width="3.0" />
            <path d=" M 589.833, 156.808 589.101, 156.984 " fill="none" stroke="rgb(0, 0, 0)" stroke-linecap="butt" stroke-linejoin="round" stroke-opacity="1.0" stroke-width="3.0" />
            <path d=" M 719.989, 154.036 719.435, 153.955 " fill="none" stroke="rgb(0, 0, 0)" stroke-linecap="butt" stroke-linejoin="round" stroke-opacity="1.0" stroke-width="3.0" />
            <path d=" M 750.306, 159.583 748.438, 159.151 " fill="none" stroke="rgb(0, 0, 0)" stroke-linecap="butt" stroke-linejoin="round" stroke-opacity="1.0" stroke-width="3.0" />
            <path d=" M 754.577, 160.465 754.056, 160.367 " fill="none" stroke="rgb(0, 0, 0)" stroke-linecap="butt" stroke-linejoin="round" stroke-opacity="1.0" stroke-width="3.0" />
            <path d=" M 799.804, 175.820 799.154, 175.509 " fill="none" stroke="rgb(0, 0, 0)" stroke-linecap="butt" stroke-linejoin="round" stroke-opacity="1.0" stroke-width="3.0" />
            <path d=" M 850.576, 271.967 850.777, 270.922 " fill="none" stroke="rgb(0, 0, 0)" stroke-linecap="butt" stroke-linejoin="round" stroke-opacity="1.0" stroke-width="3.0" />
            <path d=" M 797.578, 337.042 798.130, 336.668 " fill="none" stroke="rgb(0, 0, 0)" stroke-linecap="butt" stroke-linejoin="round" stroke-opacity="1.0" stroke-width="3.0" />
            <path d=" M 788.370, 342.885 789.786, 342.006 " fill="none" stroke="rgb(0, 0, 0)" stroke-linecap="butt" stroke-linejoin="round" stroke-opacity="1.0" stroke-width="3.0" />
            <path d=" M 778.726, 348.432 779.174, 348.172 " fill="none" stroke="rgb(0, 0, 0)" stroke-linecap="butt" stroke-linejoin="round" stroke-opacity="1.0" stroke-width="3.0" />
            <path d=" M 751.046, 360.956 751.778, 360.671 " fill="none" stroke="rgb(0, 0, 0)" stroke-linecap="butt" stroke-linejoin="round" stroke-opacity="1.0" stroke-width="3.0" />
            <path d=" M 743.170, 363.982 743.987, 363.586 " fill="none" stroke="rgb(0, 0, 0)" stroke-linecap="butt" stroke-linejoin="round" stroke-opacity="1.0" stroke-width="3.0" />
            <path d=" M 699.889, 377.573 700.868, 377.365 701.731, 377.174 " fill="none" stroke="rgb(0, 0, 0)" stroke-linecap="butt" stroke-linejoin="round" stroke-opacity="1.0" stroke-width="3.0" />
            <path d=" M 688.788, 379.907 689.887, 379.694 690.888, 379.488 " fill="none" stroke="rgb(0, 0, 0)" stroke-linecap="butt" stroke-linejoin="round" stroke-opacity="1.0" stroke-width="3.0" />
            <path d=" M 292.634, 185.500 291.490, 185.288 290.347, 185.086 " fill="none" stroke="rgb(0, 0, 0)" stroke-linecap="butt" stroke-linejoin="round" stroke-opacity="1.0" stroke-width="3.0" />
            <path d=" M 282.815, 183.949 282.018, 183.868 " fill="none" stroke="rgb(0, 0, 0)" stroke-linecap="butt" stroke-linejoin="round" stroke-opacity="1.0" stroke-width="3.0" />
            <path d=" M 281.142, 183.788 280.251, 183.717 " fill="none" stroke="rgb(0, 0, 0)" stroke-linecap="butt" stroke-linejoin="round" stroke-opacity="1.0" stroke-width="3.0" />
            <path d=" M 171.065, 194.769 169.443, 195.654 " fill="none" stroke="rgb(0, 0, 0)" stroke-linecap="butt" stroke-linejoin="round" stroke-opacity="1.0" stroke-width="3.0" />
            <path d=" M 619.268, 388.018 619.899, 387.982 620.539, 387.934 " fill="none" stroke="rgb(0, 0, 0)" stroke-linecap="butt" stroke-linejoin="round" stroke-opacity="1.0" stroke-width="3.0" />
            <path d=" M 160.525, 201.059 159.949, 201.427 " fill="none" stroke="rgb(0, 0, 0)" stroke-linecap="butt" stroke-linejoin="round" stroke-opacity="1.0" stroke-width="3.0" />
            <path d=" M 157.552, 203.145 156.298, 204.127 154.586, 205.488 " fill="none" stroke="rgb(0, 0, 0)" stroke-linecap="butt" stroke-linejoin="round" stroke-opacity="1.0" stroke-width="3.0" />
            <path d=" M 132.087, 234.349 131.514, 235.813 " fill="none" stroke="rgb(0, 0, 0)" stroke-linecap="butt" stroke-linejoin="round" stroke-opacity="1.0" stroke-width="3.0" />
            <path d=" M 525.289, 383.831 526.232, 383.953 527.136, 384.060 527.953, 384.146 528.633, 384.205 " fill="none" stroke="rgb(0, 0, 0)" stroke-linecap="butt" stroke-linejoin="round" stroke-opacity="1.0" stroke-width="3.0" />
            <path d=" M 523.448, 383.562 524.355, 383.699 " fill="none" stroke="rgb(0, 0, 0)" stroke-linecap="butt" stroke-linejoin="round" stroke-opacity="1.0" stroke-width="3.0" />
            <path d=" M 512.215, 381.938 512.902, 382.055 " fill="none" stroke="rgb(0, 0, 0)" stroke-linecap="butt" stroke-linejoin="round" stroke-opacity="1.0" stroke-width="3.0" />
            <path d=" M 491.618, 378.882 495.029, 379.453 497.444, 379.847 " fill="none" stroke="rgb(0, 0, 0)" stroke-linecap="butt" stroke-linejoin="round" stroke-opacity="1.0" stroke-width="3.0" />
            <path d=" M 486.482, 378.010 488.838, 378.411 " fill="none" stroke="rgb(0, 0, 0)" stroke-linecap="butt" stroke-linejoin="round" stroke-opacity="1.0" stroke-width="3.0" />
            <path d=" M 127.004, 290.493 127.250, 291.551 " fill="none" stroke="rgb(0, 0, 0)" stroke-linecap="butt" stroke-linejoin="round" stroke-opacity="1.0" stroke-width="3.0" />
            <path d=" M 127.686, 293.207 127.848, 293.710 " fill="none" stroke="rgb(0, 0, 0)" stroke-linecap="butt" stroke-linejoin="round" stroke-opacity="1.0" stroke-width="3.0" />
            <path d=" M 136.911, 313.169 137.808, 314.144 " fill="none" stroke="rgb(0, 0, 0)" stroke-linecap="butt" stroke-linejoin="round" stroke-opacity="1.0" stroke-width="3.0" />
            <path d=" M 420.613, 367.805 421.203, 367.864 " fill="none" stroke="rgb(0, 0, 0)" stroke-linecap="butt" stroke-linejoin="round" stroke-opacity="1.0" stroke-width="3.0" />
            <path d=" M 417.424, 367.465 417.979, 367.527 " fill="none" stroke="rgb(0, 0, 0)" stroke-linecap="butt" stroke-linejoin="round" stroke-opacity="1.0" stroke-width="3.0" />
            <path d=" M 189.575, 349.778 190.504, 350.116 191.325, 350.406 191.989, 350.630 " fill="none" stroke="rgb(0, 0, 0)" stroke-linecap="butt" stroke-linejoin="round" stroke-opacity="1.0" stroke-width="3.0" />
            <path d=" M 210.897, 355.476 211.830, 355.643 " fill="none" stroke="rgb(0, 0, 0)" stroke-linecap="butt" stroke-linejoin="round" stroke-opacity="1.0" stroke-width="3.0" />
            <path d=" M 378.492, 364.010 377.286, 363.928 " fill="none" stroke="rgb(0, 0, 0)" stroke-linecap="butt" stroke-linejoin="round" stroke-opacity="1.0" stroke-width="3.0" />
            <path d=" M 372.915, 363.607 373.822, 363.681 " fill="none" stroke="rgb(0, 0, 0)" stroke-linecap="butt" stroke-linejoin="round" stroke-opacity="1.0" stroke-width="3.0" />
        </g>
    </g>
</svg>
